<svg width="15" height="14" viewBox="0 0 15 14" fill="none" xmlns="http://www.w3.org/2000/svg">
<path d="M4.7 0.7C4.7 0.514348 4.62625 0.336301 4.49497 0.205025C4.3637 0.0737498 4.18565 0 4 0C3.81435 0 3.6363 0.0737498 3.50503 0.205025C3.37375 0.336301 3.3 0.514348 3.3 0.7H4.7ZM3.3 2.8C3.3 2.98565 3.37375 3.1637 3.50503 3.29497C3.6363 3.42625 3.81435 3.5 4 3.5C4.18565 3.5 4.3637 3.42625 4.49497 3.29497C4.62625 3.1637 4.7 2.98565 4.7 2.8H3.3ZM8.2 0.7C8.2 0.514348 8.12625 0.336301 7.99497 0.205025C7.8637 0.0737498 7.68565 0 7.5 0C7.31435 0 7.1363 0.0737498 7.00503 0.205025C6.87375 0.336301 6.8 0.514348 6.8 0.7H8.2ZM6.8 2.8C6.8 2.98565 6.87375 3.1637 7.00503 3.29497C7.1363 3.42625 7.31435 3.5 7.5 3.5C7.68565 3.5 7.8637 3.42625 7.99497 3.29497C8.12625 3.1637 8.2 2.98565 8.2 2.8H6.8ZM11.7 0.7C11.7 0.514348 11.6263 0.336301 11.495 0.205025C11.3637 0.0737498 11.1857 0 11 0C10.8143 0 10.6363 0.0737498 10.505 0.205025C10.3737 0.336301 10.3 0.514348 10.3 0.7H11.7ZM10.3 2.8C10.3 2.98565 10.3737 3.1637 10.505 3.29497C10.6363 3.42625 10.8143 3.5 11 3.5C11.1857 3.5 11.3637 3.42625 11.495 3.29497C11.6263 3.1637 11.7 2.98565 11.7 2.8H10.3ZM1.2 4.2C1.01435 4.2 0.836301 4.27375 0.705025 4.40503C0.57375 4.5363 0.5 4.71435 0.5 4.9C0.5 5.08565 0.57375 5.2637 0.705025 5.39497C0.836301 5.52625 1.01435 5.6 1.2 5.6V4.2ZM13.8 5.6C13.9857 5.6 14.1637 5.52625 14.295 5.39497C14.4263 5.2637 14.5 5.08565 14.5 4.9C14.5 4.71435 14.4263 4.5363 14.295 4.40503C14.1637 4.27375 13.9857 4.2 13.8 4.2V5.6ZM4 7.7V7H3.3V7.7H4ZM4 7.707H3.3V8.407H4V7.707ZM4.007 7.707V8.407H4.707V7.707H4.007ZM4.007 7.7H4.707V7H4.007V7.7ZM7.5 7.7V7H6.8V7.7H7.5ZM7.5 7.707H6.8V8.407H7.5V7.707ZM7.507 7.707V8.407H8.207V7.707H7.507ZM7.507 7.7H8.207V7H7.507V7.7ZM7.5 10.5V9.8H6.8V10.5H7.5ZM7.5 10.507H6.8V11.207H7.5V10.507ZM7.507 10.507V11.207H8.207V10.507H7.507ZM7.507 10.5H8.207V9.8H7.507V10.5ZM11 10.5V9.8H10.3V10.5H11ZM11 10.507H10.3V11.207H11V10.507ZM11.007 10.507V11.207H11.707V10.507H11.007ZM11.007 10.5H11.707V9.8H11.007V10.5ZM11 7.7V7H10.3V7.7H11ZM11 7.707H10.3V8.407H11V7.707ZM11.007 7.707V8.407H11.707V7.707H11.007ZM11.007 7.7H11.707V7H11.007V7.7ZM4 10.5V9.8H3.3V10.5H4ZM4 10.507H3.3V11.207H4V10.507ZM4.007 10.507V11.207H4.707V10.507H4.007ZM4.007 10.5H4.707V9.8H4.007V10.5ZM1.9 2.8H13.1V1.4H1.9V2.8ZM13.1 2.8H14.5C14.5 2.4287 14.3525 2.0726 14.0899 1.81005C13.8274 1.5475 13.4713 1.4 13.1 1.4V2.8ZM13.1 2.8V12.6H14.5V2.8H13.1ZM13.1 12.6V14C13.4713 14 13.8274 13.8525 14.0899 13.5899C14.3525 13.3274 14.5 12.9713 14.5 12.6H13.1ZM13.1 12.6H1.9V14H13.1V12.6ZM1.9 12.6H0.5C0.5 12.9713 0.6475 13.3274 0.910051 13.5899C1.1726 13.8525 1.5287 14 1.9 14V12.6ZM1.9 12.6V2.8H0.5V12.6H1.9ZM1.9 2.8V1.4C1.5287 1.4 1.1726 1.5475 0.910051 1.81005C0.6475 2.0726 0.5 2.4287 0.5 2.8H1.9ZM3.3 0.7V2.8H4.7V0.7H3.3ZM6.8 0.7V2.8H8.2V0.7H6.8ZM10.3 0.7V2.8H11.7V0.7H10.3ZM1.2 5.6H13.8V4.2H1.2V5.6ZM3.3 7.7V7.707H4.7V7.7H3.3ZM4 8.407H4.007V7.007H4V8.407ZM4.707 7.707V7.7H3.307V7.707H4.707ZM4.007 7H4V8.4H4.007V7ZM6.8 7.7V7.707H8.2V7.7H6.8ZM7.5 8.407H7.507V7.007H7.5V8.407ZM8.207 7.707V7.7H6.807V7.707H8.207ZM7.507 7H7.5V8.4H7.507V7ZM6.8 10.5V10.507H8.2V10.5H6.8ZM7.5 11.207H7.507V9.807H7.5V11.207ZM8.207 10.507V10.5H6.807V10.507H8.207ZM7.507 9.8H7.5V11.2H7.507V9.8ZM10.3 10.5V10.507H11.7V10.5H10.3ZM11 11.207H11.007V9.807H11V11.207ZM11.707 10.507V10.5H10.307V10.507H11.707ZM11.007 9.8H11V11.2H11.007V9.8ZM10.3 7.7V7.707H11.7V7.7H10.3ZM11 8.407H11.007V7.007H11V8.407ZM11.707 7.707V7.7H10.307V7.707H11.707ZM11.007 7H11V8.4H11.007V7ZM3.3 10.5V10.507H4.7V10.5H3.3ZM4 11.207H4.007V9.807H4V11.207ZM4.707 10.507V10.5H3.307V10.507H4.707ZM4.007 9.8H4V11.2H4.007V9.8Z" fill="#95A1BB"/>
</svg>
